<!-- Generated by IcoMoon.io -->
<svg version="1.1" xmlns="http://www.w3.org/2000/svg" width="1024" height="1024" viewBox="0 0 1024 1024">
<title></title>
<g id="icomoon-ignore">
</g>
<path fill="#000" d="M789.568 701.088c0 0 106.56-72.896 106.56-216.672 0-214.016-226.816-293.152-348.768-291.040-121.984 2.144-158.336 34.24-158.336 34.24s-41.504-30.176-85.504-55.456c-33.664-13.12-41.472-15.008-64.864-7.488-18.72 0-6.944 31.168 0.576 42.4 7.456 11.232 43.712 73.28 43.712 73.28s-76.096 78.368-81.728 129.888c0-0.928-35.84-0.288-55.488-0.288s-17.792 21.408-17.792 21.408l0.544 150.848c0 0-1.216 21.408 16.608 21.408 17.792 0 55.616 0.416 55.616 0.416s53.216 77.28 86.944 91.328c0 0.928-29.152 80.096-29.152 80.096s-14.048 24.352 11.232 33.728c25.28 9.344 91.232 37.024 119.328 45.472 28.064 8.416 32.096-10.688 32.096-10.688l27.808-60.064 181.92 0.288 27.808 61.92c0 0 5.344 28.736 42.784 12.832 37.472-15.904 78.368-34.784 109.28-50.688 30.88-15.904 10.56-45.632 10.56-45.632l-31.744-61.536zM298.304 440.448c-17.056 0-30.88-13.856-30.88-30.912s13.824-30.88 30.88-30.88 30.912 13.824 30.912 30.88-13.856 30.912-30.912 30.912zM733.6 344.192c-9.856 11.68-16.288 3.072-24.224 0.736 0 0-33.632-31.2-83.040-45.76-51.168-15.040-105.024-7.776-105.024-7.776-7.936-2.336-17.568-2.592-17.632-14.848 0.416-15.136 18.784-15.264 18.56-15.776 0 0 60.608-5.6 111.328 9.312 49.888 14.656 88 46.528 88 46.528s20.384 14.048 12.032 27.584z"></path>
</svg>
